<?xml version="1.0" encoding="UTF-8" standalone="no"?>
<!-- Created with Inkscape (http://www.inkscape.org/) -->

<svg
   width="700"
   height="600"
   viewBox="0 0 185.20834 158.75"
   version="1.1"
   id="svg4524"
   inkscape:version="1.1.1 (3bf5ae0d25, 2021-09-20)"
   sodipodi:docname="board2.svg"
   xmlns:inkscape="http://www.inkscape.org/namespaces/inkscape"
   xmlns:sodipodi="http://sodipodi.sourceforge.net/DTD/sodipodi-0.dtd"
   xmlns="http://www.w3.org/2000/svg"
   xmlns:svg="http://www.w3.org/2000/svg"
   xmlns:rdf="http://www.w3.org/1999/02/22-rdf-syntax-ns#"
   xmlns:cc="http://creativecommons.org/ns#"
   xmlns:dc="http://purl.org/dc/elements/1.1/">
  <defs
     id="defs4518">
    <inkscape:path-effect
       effect="fillet_chamfer"
       id="path-effect1337"
       is_visible="true"
       lpeversion="1"
       satellites_param="F,0,0,1,0,10,0,1 @ F,0,0,1,0,10,0,1 @ F,0,0,1,0,10,0,1 @ F,0,0,1,0,10,0,1"
       unit="px"
       method="auto"
       mode="F"
       radius="10"
       chamfer_steps="1"
       flexible="false"
       use_knot_distance="true"
       apply_no_radius="true"
       apply_with_radius="true"
       only_selected="false"
       hide_knots="false" />
    <inkscape:path-effect
       effect="fillet_chamfer"
       id="path-effect1327"
       is_visible="true"
       lpeversion="1"
       satellites_param="F,0,0,1,0,10,0,1 @ F,0,0,1,0,10,0,1 @ F,0,0,1,0,10,0,1 @ F,0,0,1,0,10,0,1"
       unit="px"
       method="auto"
       mode="F"
       radius="10"
       chamfer_steps="1"
       flexible="false"
       use_knot_distance="true"
       apply_no_radius="true"
       apply_with_radius="true"
       only_selected="false"
       hide_knots="false" />
    <inkscape:path-effect
       effect="offset"
       id="path-effect1840"
       is_visible="true"
       lpeversion="1"
       linejoin_type="miter"
       unit="px"
       offset="3.4"
       miter_limit="4"
       attempt_force_join="false"
       update_on_knot_move="true" />
    <inkscape:path-effect
       effect="fillet_chamfer"
       id="path-effect8"
       is_visible="true"
       lpeversion="1"
       satellites_param="F,0,0,1,0,10,0,1 @ F,0,0,1,0,10,0,1 @ F,0,0,1,0,10,0,1 @ F,0,0,1,0,10,0,1"
       unit="px"
       method="auto"
       mode="F"
       radius="10"
       chamfer_steps="1"
       flexible="false"
       use_knot_distance="true"
       apply_no_radius="true"
       apply_with_radius="true"
       only_selected="false"
       hide_knots="false" />
  </defs>
  <sodipodi:namedview
     id="base"
     pagecolor="#949494"
     bordercolor="#ff001d"
     borderopacity="1"
     inkscape:pageopacity="1"
     inkscape:pageshadow="2"
     inkscape:zoom="1.4"
     inkscape:cx="331.78571"
     inkscape:cy="353.21429"
     inkscape:document-units="px"
     inkscape:current-layer="layer1"
     showgrid="false"
     units="px"
     inkscape:pagecheckerboard="true"
     showborder="true"
     inkscape:showpageshadow="false"
     inkscape:window-width="2560"
     inkscape:window-height="1361"
     inkscape:window-x="-9"
     inkscape:window-y="-9"
     inkscape:window-maximized="1"
     borderlayer="true"
     showguides="false"
     inkscape:guide-bbox="true"
     inkscape:lockguides="false">
    <sodipodi:guide
       position="0,132.29167"
       orientation="0,1"
       id="guide10"
       inkscape:label=""
       inkscape:locked="false"
       inkscape:color="rgb(0,0,255)" />
    <sodipodi:guide
       position="0,105.83334"
       orientation="0,1"
       id="guide12"
       inkscape:label=""
       inkscape:locked="false"
       inkscape:color="rgb(0,0,255)" />
    <sodipodi:guide
       position="0,-635.00001"
       orientation="0,1"
       id="guide14"
       inkscape:label=""
       inkscape:locked="false"
       inkscape:color="rgb(0,0,255)" />
    <sodipodi:guide
       position="0,79.375001"
       orientation="0,1"
       id="guide16"
       inkscape:label=""
       inkscape:locked="false"
       inkscape:color="rgb(0,0,255)" />
    <sodipodi:guide
       position="0,52.916668"
       orientation="0,1"
       id="guide18"
       inkscape:label=""
       inkscape:locked="false"
       inkscape:color="rgb(0,0,255)" />
    <sodipodi:guide
       position="0,26.458334"
       orientation="0,1"
       id="guide20"
       inkscape:label=""
       inkscape:locked="false"
       inkscape:color="rgb(0,0,255)" />
    <sodipodi:guide
       position="26.458334,158.75"
       orientation="-1,0"
       id="guide22"
       inkscape:label=""
       inkscape:locked="false"
       inkscape:color="rgb(0,0,255)" />
    <sodipodi:guide
       position="52.916668,158.75"
       orientation="-1,0"
       id="guide24"
       inkscape:label=""
       inkscape:locked="false"
       inkscape:color="rgb(0,0,255)" />
    <sodipodi:guide
       position="79.375001,158.75"
       orientation="-1,0"
       id="guide26"
       inkscape:label=""
       inkscape:locked="false"
       inkscape:color="rgb(0,0,255)" />
    <sodipodi:guide
       position="105.83334,158.75"
       orientation="-1,0"
       id="guide28"
       inkscape:label=""
       inkscape:locked="false"
       inkscape:color="rgb(0,0,255)" />
    <sodipodi:guide
       position="132.29167,158.75"
       orientation="-1,0"
       id="guide30"
       inkscape:label=""
       inkscape:locked="false"
       inkscape:color="rgb(0,0,255)" />
    <sodipodi:guide
       position="158.75,158.75"
       orientation="-1,0"
       id="guide32"
       inkscape:label=""
       inkscape:locked="false"
       inkscape:color="rgb(0,0,255)" />
  </sodipodi:namedview>
  <metadata
     id="metadata4521">
    <rdf:RDF>
      <cc:Work
         rdf:about="">
        <dc:format>image/svg+xml</dc:format>
        <dc:type
           rdf:resource="http://purl.org/dc/dcmitype/StillImage" />
      </cc:Work>
    </rdf:RDF>
  </metadata>
  <g
     inkscape:label="Layer 1"
     id="layer1"
     transform="translate(0,-138.25001)">
    <path
       id="circle1781"
       style="display:inline;opacity:0.28;fill:none;stroke:#000000;stroke-width:2.33763"
       d="m 182.24624,284.33701 a 10.075976,10.075976 0 0 1 -10.07598,10.07597 10.075976,10.075976 0 0 1 -10.07598,-10.07597 10.075976,10.075976 0 0 1 10.07598,-10.07598 10.075976,10.075976 0 0 1 10.07598,10.07598 z m -26.45833,0 a 10.075976,10.075976 0 0 1 -10.07598,10.07597 10.075976,10.075976 0 0 1 -10.07597,-10.07597 10.075976,10.075976 0 0 1 10.07597,-10.07598 10.075976,10.075976 0 0 1 10.07598,10.07598 z m -26.45834,0 a 10.075976,10.075976 0 0 1 -10.07597,10.07597 10.075976,10.075976 0 0 1 -10.07598,-10.07597 10.075976,10.075976 0 0 1 10.07598,-10.07598 10.075976,10.075976 0 0 1 10.07597,10.07598 z m -26.45833,0 a 10.075976,10.075976 0 0 1 -10.075975,10.07597 10.075976,10.075976 0 0 1 -10.075977,-10.07597 10.075976,10.075976 0 0 1 10.075977,-10.07598 10.075976,10.075976 0 0 1 10.075975,10.07598 z m -26.458335,0 a 10.075976,10.075976 0 0 1 -10.075976,10.07597 10.075976,10.075976 0 0 1 -10.075977,-10.07597 10.075976,10.075976 0 0 1 10.075977,-10.07598 10.075976,10.075976 0 0 1 10.075976,10.07598 z m -26.458332,0 A 10.075976,10.075976 0 0 1 39.878597,294.41298 10.075976,10.075976 0 0 1 29.80262,284.33701 10.075976,10.075976 0 0 1 39.878597,274.26103 10.075976,10.075976 0 0 1 49.954573,284.33701 Z m -26.458373,0 A 10.075976,10.075976 0 0 1 13.420224,294.41298 10.075976,10.075976 0 0 1 3.3442468,284.33701 10.075976,10.075976 0 0 1 13.420224,274.26103 10.075976,10.075976 0 0 1 23.4962,284.33701 Z m 158.75004,-26.45834 a 10.075976,10.075976 0 0 1 -10.07598,10.07597 10.075976,10.075976 0 0 1 -10.07598,-10.07597 10.075976,10.075976 0 0 1 10.07598,-10.07598 10.075976,10.075976 0 0 1 10.07598,10.07598 z m -26.45833,0 a 10.075976,10.075976 0 0 1 -10.07598,10.07597 10.075976,10.075976 0 0 1 -10.07597,-10.07597 10.075976,10.075976 0 0 1 10.07597,-10.07598 10.075976,10.075976 0 0 1 10.07598,10.07598 z m -26.45834,0 a 10.075976,10.075976 0 0 1 -10.07597,10.07597 10.075976,10.075976 0 0 1 -10.07598,-10.07597 10.075976,10.075976 0 0 1 10.07598,-10.07598 10.075976,10.075976 0 0 1 10.07597,10.07598 z m -26.45833,0 a 10.075976,10.075976 0 0 1 -10.075975,10.07597 10.075976,10.075976 0 0 1 -10.075977,-10.07597 10.075976,10.075976 0 0 1 10.075977,-10.07598 10.075976,10.075976 0 0 1 10.075975,10.07598 z m -26.458335,0 a 10.075976,10.075976 0 0 1 -10.075976,10.07597 10.075976,10.075976 0 0 1 -10.075977,-10.07597 10.075976,10.075976 0 0 1 10.075977,-10.07598 10.075976,10.075976 0 0 1 10.075976,10.07598 z m -26.458332,0 A 10.075976,10.075976 0 0 1 39.878597,267.95464 10.075976,10.075976 0 0 1 29.80262,257.87867 10.075976,10.075976 0 0 1 39.878597,247.80269 10.075976,10.075976 0 0 1 49.954573,257.87867 Z m -26.458373,0 A 10.075976,10.075976 0 0 1 13.420224,267.95464 10.075976,10.075976 0 0 1 3.3442468,257.87867 10.075976,10.075976 0 0 1 13.420224,247.80269 10.075976,10.075976 0 0 1 23.4962,257.87867 Z m 158.75004,-26.45832 a 10.075976,10.075976 0 0 1 -10.07598,10.07598 10.075976,10.075976 0 0 1 -10.07598,-10.07598 10.075976,10.075976 0 0 1 10.07598,-10.07597 10.075976,10.075976 0 0 1 10.07598,10.07597 z m -26.45833,0 a 10.075976,10.075976 0 0 1 -10.07598,10.07598 10.075976,10.075976 0 0 1 -10.07597,-10.07598 10.075976,10.075976 0 0 1 10.07597,-10.07597 10.075976,10.075976 0 0 1 10.07598,10.07597 z m -26.45834,0 a 10.075976,10.075976 0 0 1 -10.07597,10.07598 10.075976,10.075976 0 0 1 -10.07598,-10.07598 10.075976,10.075976 0 0 1 10.07598,-10.07597 10.075976,10.075976 0 0 1 10.07597,10.07597 z m -26.45833,0 a 10.075976,10.075976 0 0 1 -10.075975,10.07598 10.075976,10.075976 0 0 1 -10.075977,-10.07598 10.075976,10.075976 0 0 1 10.075977,-10.07597 10.075976,10.075976 0 0 1 10.075975,10.07597 z m -26.458335,0 a 10.075976,10.075976 0 0 1 -10.075976,10.07598 10.075976,10.075976 0 0 1 -10.075977,-10.07598 10.075976,10.075976 0 0 1 10.075977,-10.07597 10.075976,10.075976 0 0 1 10.075976,10.07597 z m -26.458332,0 A 10.075976,10.075976 0 0 1 39.878597,241.49633 10.075976,10.075976 0 0 1 29.80262,231.42035 10.075976,10.075976 0 0 1 39.878597,221.34438 10.075976,10.075976 0 0 1 49.954573,231.42035 Z m -26.458373,0 A 10.075976,10.075976 0 0 1 13.420224,241.49633 10.075976,10.075976 0 0 1 3.3442468,231.42035 10.075976,10.075976 0 0 1 13.420224,221.34438 10.075976,10.075976 0 0 1 23.4962,231.42035 Z m 158.75004,-26.45834 a 10.075976,10.075976 0 0 1 -10.07598,10.07597 10.075976,10.075976 0 0 1 -10.07598,-10.07597 10.075976,10.075976 0 0 1 10.07598,-10.07598 10.075976,10.075976 0 0 1 10.07598,10.07598 z m -26.45833,0 a 10.075976,10.075976 0 0 1 -10.07598,10.07597 10.075976,10.075976 0 0 1 -10.07597,-10.07597 10.075976,10.075976 0 0 1 10.07597,-10.07598 10.075976,10.075976 0 0 1 10.07598,10.07598 z m -26.45834,0 a 10.075976,10.075976 0 0 1 -10.07597,10.07597 10.075976,10.075976 0 0 1 -10.07598,-10.07597 10.075976,10.075976 0 0 1 10.07598,-10.07598 10.075976,10.075976 0 0 1 10.07597,10.07598 z m -26.45833,0 a 10.075976,10.075976 0 0 1 -10.075975,10.07597 10.075976,10.075976 0 0 1 -10.075977,-10.07597 10.075976,10.075976 0 0 1 10.075977,-10.07598 10.075976,10.075976 0 0 1 10.075975,10.07598 z m -26.458335,0 a 10.075976,10.075976 0 0 1 -10.075976,10.07597 10.075976,10.075976 0 0 1 -10.075977,-10.07597 10.075976,10.075976 0 0 1 10.075977,-10.07598 10.075976,10.075976 0 0 1 10.075976,10.07598 z m -26.458332,0 A 10.075976,10.075976 0 0 1 39.878597,215.03798 10.075976,10.075976 0 0 1 29.80262,204.96201 10.075976,10.075976 0 0 1 39.878597,194.88603 10.075976,10.075976 0 0 1 49.954573,204.96201 Z m -26.458373,0 A 10.075976,10.075976 0 0 1 13.420224,215.03798 10.075976,10.075976 0 0 1 3.3442468,204.96201 10.075976,10.075976 0 0 1 13.420224,194.88603 10.075976,10.075976 0 0 1 23.4962,204.96201 Z m 158.75004,-26.45833 a 10.075976,10.075976 0 0 1 -10.07598,10.07598 10.075976,10.075976 0 0 1 -10.07598,-10.07598 10.075976,10.075976 0 0 1 10.07598,-10.07598 10.075976,10.075976 0 0 1 10.07598,10.07598 z m -26.45833,0 a 10.075976,10.075976 0 0 1 -10.07598,10.07598 10.075976,10.075976 0 0 1 -10.07597,-10.07598 10.075976,10.075976 0 0 1 10.07597,-10.07598 10.075976,10.075976 0 0 1 10.07598,10.07598 z m -26.45834,0 a 10.075976,10.075976 0 0 1 -10.07597,10.07598 10.075976,10.075976 0 0 1 -10.07598,-10.07598 10.075976,10.075976 0 0 1 10.07598,-10.07598 10.075976,10.075976 0 0 1 10.07597,10.07598 z m -26.45833,0 A 10.075976,10.075976 0 0 1 92.795265,188.57966 10.075976,10.075976 0 0 1 82.719288,178.50368 10.075976,10.075976 0 0 1 92.795265,168.4277 10.075976,10.075976 0 0 1 102.87124,178.50368 Z m -26.458335,0 A 10.075976,10.075976 0 0 1 66.336929,188.57966 10.075976,10.075976 0 0 1 56.260952,178.50368 10.075976,10.075976 0 0 1 66.336929,168.4277 10.075976,10.075976 0 0 1 76.412905,178.50368 Z m -26.458332,0 A 10.075976,10.075976 0 0 1 39.878597,188.57966 10.075976,10.075976 0 0 1 29.80262,178.50368 10.075976,10.075976 0 0 1 39.878597,168.4277 10.075976,10.075976 0 0 1 49.954573,178.50368 Z m -26.458373,0 A 10.075976,10.075976 0 0 1 13.420224,188.57966 10.075976,10.075976 0 0 1 3.3442468,178.50368 10.075976,10.075976 0 0 1 13.420224,168.4277 10.075976,10.075976 0 0 1 23.4962,178.50368 Z m 158.75004,-26.45831 a 10.075976,10.075976 0 0 1 -10.07598,10.07597 10.075976,10.075976 0 0 1 -10.07598,-10.07597 10.075976,10.075976 0 0 1 10.07598,-10.07598 10.075976,10.075976 0 0 1 10.07598,10.07598 z m -26.45833,0 a 10.075976,10.075976 0 0 1 -10.07598,10.07597 10.075976,10.075976 0 0 1 -10.07597,-10.07597 10.075976,10.075976 0 0 1 10.07597,-10.07598 10.075976,10.075976 0 0 1 10.07598,10.07598 z m -26.45834,0 a 10.075976,10.075976 0 0 1 -10.07597,10.07597 10.075976,10.075976 0 0 1 -10.07598,-10.07597 10.075976,10.075976 0 0 1 10.07598,-10.07598 10.075976,10.075976 0 0 1 10.07597,10.07598 z m -26.45833,0 a 10.075976,10.075976 0 0 1 -10.075975,10.07597 10.075976,10.075976 0 0 1 -10.075977,-10.07597 10.075976,10.075976 0 0 1 10.075977,-10.07598 10.075976,10.075976 0 0 1 10.075975,10.07598 z m -26.458335,0 a 10.075976,10.075976 0 0 1 -10.075976,10.07597 10.075976,10.075976 0 0 1 -10.075977,-10.07597 10.075976,10.075976 0 0 1 10.075977,-10.07598 10.075976,10.075976 0 0 1 10.075976,10.07598 z m -26.458332,0 A 10.075976,10.075976 0 0 1 39.878597,162.12134 10.075976,10.075976 0 0 1 29.80262,152.04537 10.075976,10.075976 0 0 1 39.878597,141.96939 10.075976,10.075976 0 0 1 49.954573,152.04537 Z m -26.458373,0 A 10.075976,10.075976 0 0 1 13.420224,162.12134 10.075976,10.075976 0 0 1 3.3442468,152.04537 10.075976,10.075976 0 0 1 13.420224,141.96939 10.075976,10.075976 0 0 1 23.4962,152.04537 Z"
       inkscape:label="Shadow" />
    <path
       id="path1074"
       style="display:inline;opacity:1;fill:#ececec;fill-opacity:1;stroke:none;stroke-width:99.8982;stroke-linecap:square;stroke-linejoin:round;stroke-miterlimit:4;stroke-dasharray:none;stroke-opacity:1"
       d="M 37.794922,0 A 37.795275,37.795275 0 0 0 0,37.794922 V 562.20508 A 37.795275,37.795275 0 0 0 37.794922,600 H 662.20508 A 37.795275,37.795275 0 0 0 700,562.20508 V 37.794922 A 37.795275,37.795275 0 0 0 662.20508,0 Z M 50,10 A 40.000002,40.000002 0 0 1 90,50 40.000002,40.000002 0 0 1 50,90 40.000002,40.000002 0 0 1 10,50 40.000002,40.000002 0 0 1 50,10 Z m 100,0 a 40.000002,40.000002 0 0 1 40,40 40.000002,40.000002 0 0 1 -40,40 40.000002,40.000002 0 0 1 -40,-40 40.000002,40.000002 0 0 1 40,-40 z m 100,0 a 40.000002,40.000002 0 0 1 40,40 40.000002,40.000002 0 0 1 -40,40 40.000002,40.000002 0 0 1 -40,-40 40.000002,40.000002 0 0 1 40,-40 z m 100,0 a 40.000002,40.000002 0 0 1 40,40 40.000002,40.000002 0 0 1 -40,40 40.000002,40.000002 0 0 1 -40,-40 40.000002,40.000002 0 0 1 40,-40 z m 100,0 a 40.000002,40.000002 0 0 1 40,40 40.000002,40.000002 0 0 1 -40,40 40.000002,40.000002 0 0 1 -40,-40 40.000002,40.000002 0 0 1 40,-40 z m 100,0 a 40.000002,40.000002 0 0 1 40,40 40.000002,40.000002 0 0 1 -40,40 40.000002,40.000002 0 0 1 -40,-40 40.000002,40.000002 0 0 1 40,-40 z m 100,0 A 40.000002,40.000002 0 0 1 690,50 40.000002,40.000002 0 0 1 650,90 40.000002,40.000002 0 0 1 610,50 40.000002,40.000002 0 0 1 650,10 Z M 50,110 a 40.000002,40.000002 0 0 1 40,40 40.000002,40.000002 0 0 1 -40,40 40.000002,40.000002 0 0 1 -40,-40 40.000002,40.000002 0 0 1 40,-40 z m 100,0 a 40.000002,40.000002 0 0 1 40,40 40.000002,40.000002 0 0 1 -40,40 40.000002,40.000002 0 0 1 -40,-40 40.000002,40.000002 0 0 1 40,-40 z m 100,0 a 40.000002,40.000002 0 0 1 40,40 40.000002,40.000002 0 0 1 -40,40 40.000002,40.000002 0 0 1 -40,-40 40.000002,40.000002 0 0 1 40,-40 z m 100,0 a 40.000002,40.000002 0 0 1 40,40 40.000002,40.000002 0 0 1 -40,40 40.000002,40.000002 0 0 1 -40,-40 40.000002,40.000002 0 0 1 40,-40 z m 100,0 a 40.000002,40.000002 0 0 1 40,40 40.000002,40.000002 0 0 1 -40,40 40.000002,40.000002 0 0 1 -40,-40 40.000002,40.000002 0 0 1 40,-40 z m 100,0 a 40.000002,40.000002 0 0 1 40,40 40.000002,40.000002 0 0 1 -40,40 40.000002,40.000002 0 0 1 -40,-40 40.000002,40.000002 0 0 1 40,-40 z m 100,0 a 40.000002,40.000002 0 0 1 40,40 40.000002,40.000002 0 0 1 -40,40 40.000002,40.000002 0 0 1 -40,-40 40.000002,40.000002 0 0 1 40,-40 z M 50,210 a 40.000002,40.000002 0 0 1 40,40 40.000002,40.000002 0 0 1 -40,40 40.000002,40.000002 0 0 1 -40,-40 40.000002,40.000002 0 0 1 40,-40 z m 100,0 a 40.000002,40.000002 0 0 1 40,40 40.000002,40.000002 0 0 1 -40,40 40.000002,40.000002 0 0 1 -40,-40 40.000002,40.000002 0 0 1 40,-40 z m 100,0 a 40.000002,40.000002 0 0 1 40,40 40.000002,40.000002 0 0 1 -40,40 40.000002,40.000002 0 0 1 -40,-40 40.000002,40.000002 0 0 1 40,-40 z m 100,0 a 40.000002,40.000002 0 0 1 40,40 40.000002,40.000002 0 0 1 -40,40 40.000002,40.000002 0 0 1 -40,-40 40.000002,40.000002 0 0 1 40,-40 z m 100,0 a 40.000002,40.000002 0 0 1 40,40 40.000002,40.000002 0 0 1 -40,40 40.000002,40.000002 0 0 1 -40,-40 40.000002,40.000002 0 0 1 40,-40 z m 100,0 a 40.000002,40.000002 0 0 1 40,40 40.000002,40.000002 0 0 1 -40,40 40.000002,40.000002 0 0 1 -40,-40 40.000002,40.000002 0 0 1 40,-40 z m 100,0 a 40.000002,40.000002 0 0 1 40,40 40.000002,40.000002 0 0 1 -40,40 40.000002,40.000002 0 0 1 -40,-40 40.000002,40.000002 0 0 1 40,-40 z M 50,310 a 40.000002,40.000002 0 0 1 40,40 40.000002,40.000002 0 0 1 -40,40 40.000002,40.000002 0 0 1 -40,-40 40.000002,40.000002 0 0 1 40,-40 z m 100,0 a 40.000002,40.000002 0 0 1 40,40 40.000002,40.000002 0 0 1 -40,40 40.000002,40.000002 0 0 1 -40,-40 40.000002,40.000002 0 0 1 40,-40 z m 100,0 a 40.000002,40.000002 0 0 1 40,40 40.000002,40.000002 0 0 1 -40,40 40.000002,40.000002 0 0 1 -40,-40 40.000002,40.000002 0 0 1 40,-40 z m 100,0 a 40.000002,40.000002 0 0 1 40,40 40.000002,40.000002 0 0 1 -40,40 40.000002,40.000002 0 0 1 -40,-40 40.000002,40.000002 0 0 1 40,-40 z m 100,0 a 40.000002,40.000002 0 0 1 40,40 40.000002,40.000002 0 0 1 -40,40 40.000002,40.000002 0 0 1 -40,-40 40.000002,40.000002 0 0 1 40,-40 z m 100,0 a 40.000002,40.000002 0 0 1 40,40 40.000002,40.000002 0 0 1 -40,40 40.000002,40.000002 0 0 1 -40,-40 40.000002,40.000002 0 0 1 40,-40 z m 100,0 a 40.000002,40.000002 0 0 1 40,40 40.000002,40.000002 0 0 1 -40,40 40.000002,40.000002 0 0 1 -40,-40 40.000002,40.000002 0 0 1 40,-40 z M 50,410 a 40.000002,40.000002 0 0 1 40,40 40.000002,40.000002 0 0 1 -40,40 40.000002,40.000002 0 0 1 -40,-40 40.000002,40.000002 0 0 1 40,-40 z m 100,0 a 40.000002,40.000002 0 0 1 40,40 40.000002,40.000002 0 0 1 -40,40 40.000002,40.000002 0 0 1 -40,-40 40.000002,40.000002 0 0 1 40,-40 z m 100,0 a 40.000002,40.000002 0 0 1 40,40 40.000002,40.000002 0 0 1 -40,40 40.000002,40.000002 0 0 1 -40,-40 40.000002,40.000002 0 0 1 40,-40 z m 100,0 a 40.000002,40.000002 0 0 1 40,40 40.000002,40.000002 0 0 1 -40,40 40.000002,40.000002 0 0 1 -40,-40 40.000002,40.000002 0 0 1 40,-40 z m 100,0 a 40.000002,40.000002 0 0 1 40,40 40.000002,40.000002 0 0 1 -40,40 40.000002,40.000002 0 0 1 -40,-40 40.000002,40.000002 0 0 1 40,-40 z m 100,0 a 40.000002,40.000002 0 0 1 40,40 40.000002,40.000002 0 0 1 -40,40 40.000002,40.000002 0 0 1 -40,-40 40.000002,40.000002 0 0 1 40,-40 z m 100,0 a 40.000002,40.000002 0 0 1 40,40 40.000002,40.000002 0 0 1 -40,40 40.000002,40.000002 0 0 1 -40,-40 40.000002,40.000002 0 0 1 40,-40 z M 50,510 a 40.000002,40.000002 0 0 1 40,40 40.000002,40.000002 0 0 1 -40,40 40.000002,40.000002 0 0 1 -40,-40 40.000002,40.000002 0 0 1 40,-40 z m 100,0 a 40.000002,40.000002 0 0 1 40,40 40.000002,40.000002 0 0 1 -40,40 40.000002,40.000002 0 0 1 -40,-40 40.000002,40.000002 0 0 1 40,-40 z m 100,0 a 40.000002,40.000002 0 0 1 40,40 40.000002,40.000002 0 0 1 -40,40 40.000002,40.000002 0 0 1 -40,-40 40.000002,40.000002 0 0 1 40,-40 z m 100,0 a 40.000002,40.000002 0 0 1 40,40 40.000002,40.000002 0 0 1 -40,40 40.000002,40.000002 0 0 1 -40,-40 40.000002,40.000002 0 0 1 40,-40 z m 100,0 a 40.000002,40.000002 0 0 1 40,40 40.000002,40.000002 0 0 1 -40,40 40.000002,40.000002 0 0 1 -40,-40 40.000002,40.000002 0 0 1 40,-40 z m 100,0 a 40.000002,40.000002 0 0 1 40,40 40.000002,40.000002 0 0 1 -40,40 40.000002,40.000002 0 0 1 -40,-40 40.000002,40.000002 0 0 1 40,-40 z m 100,0 a 40.000002,40.000002 0 0 1 40,40 40.000002,40.000002 0 0 1 -40,40 40.000002,40.000002 0 0 1 -40,-40 40.000002,40.000002 0 0 1 40,-40 z"
       transform="matrix(0.26458334,0,0,0.26458334,0,138.25001)"
       inkscape:label="Board" />
  </g>
</svg>
